#Comment line ignore any data following # character 
#Hierarchical Translation and Rotation (.htr) file 
[Header]	
#Header keywords are followed by a single value 
FileType HTR		#Single word string
DataType HTRS		#Translation followed by rotation and scale data
FileVersion 1		#integer
NumSegments 84		#integer
NumFrames 2		#integer
DataFrameRate 30		#integer, data frame rate in this file
EulerRotationOrder ZYX
CalibrationUnits mm
RotationUnits Degrees
GlobalAxisofGravity Y
BoneLengthAxis Y
ScaleFactor 1.00
[SegmentNames&Hierarchy]
#CHILD	PARENT
MASTER GLOBAL
root MASTER
chest root
L_mid_tent01 root
R_mid_tent01 root
spine01 root
Bip01_Neck chest
L_humerus chest
R_humerus chest
weapon_bone chest
Bip01_Head Bip01_Neck
eye_left_bone Bip01_Head
eye_right_bone Bip01_Head
L_forearm L_humerus
L_front_hand L_forearm
L_weapon_bone L_forearm
L_front_hand01_01 L_front_hand
L_front_hand02_01 L_front_hand
L_front_hand03_01 L_front_hand
L_front_hand01_02 L_front_hand01_01
L_front_hand02_02 L_front_hand02_01
L_front_hand03_02 L_front_hand03_01
R_forearm R_humerus
R_front_hand R_forearm
R_weapon_bone R_forearm
R_front_hand01_01 R_front_hand
R_front_hand02_01 R_front_hand
R_front_hand03_01 R_front_hand
R_front_hand01_02 R_front_hand01_01
R_front_hand02_02 R_front_hand02_01
R_front_hand03_02 R_front_hand03_01
null_rope01_connect L_mid_tent01
Rope1_Seg01 null_rope01_connect
Rope1_Seg02 Rope1_Seg01
Rope1_Seg03 Rope1_Seg02
Rope1_Seg04 Rope1_Seg03
Rope1_Seg05 Rope1_Seg04
Rope1_Seg06 Rope1_Seg05
Rope1_Seg07 Rope1_Seg06
Rope1_Seg09 Rope1_Seg07
L_mid_hand01 Rope1_Seg09
L_mid_hand02 Rope1_Seg09
L_mid_hand03 Rope1_Seg09
null_rope02_connect R_mid_tent01
Rope2_Seg01 null_rope02_connect
Rope2_Seg02 Rope2_Seg01
Rope2_Seg03 Rope2_Seg02
Rope2_Seg04 Rope2_Seg03
Rope2_Seg05 Rope2_Seg04
Rope2_Seg06 Rope2_Seg05
Rope2_Seg07 Rope2_Seg06
Rope2_Seg09 Rope2_Seg07
R_mid_hand01 Rope2_Seg09
R_mid_hand02 Rope2_Seg09
R_mid_hand03 Rope2_Seg09
spine02 spine01
spine03 spine02
pelvis spine03
null_rope03_connect pelvis
null_rope04_connect pelvis
Rope3_Seg01 null_rope03_connect
Rope3_Seg02 Rope3_Seg01
Rope3_Seg03 Rope3_Seg02
Rope3_Seg04 Rope3_Seg03
Rope3_Seg05 Rope3_Seg04
Rope3_Seg06 Rope3_Seg05
Rope3_Seg07 Rope3_Seg06
Rope3_Seg08 Rope3_Seg07
Rope3_Seg09 Rope3_Seg08
R_rear_hand01 Rope3_Seg09
R_rear_hand02 Rope3_Seg09
R_rear_hand03 Rope3_Seg09
Rope4_Seg01 null_rope04_connect
Rope4_Seg02 Rope4_Seg01
Rope4_Seg03 Rope4_Seg02
Rope4_Seg04 Rope4_Seg03
Rope4_Seg05 Rope4_Seg04
Rope4_Seg06 Rope4_Seg05
Rope4_Seg07 Rope4_Seg06
Rope4_Seg08 Rope4_Seg07
Rope4_Seg09 Rope4_Seg08
L_rear_hand01 Rope4_Seg09
L_rear_hand02 Rope4_Seg09
L_rear_hand03 Rope4_Seg09
[BasePosition]
#SegmentName Tx, Ty, Tz, Rx, Ry, Rz, BoneLength
MASTER 0.000000 0.000000 0.000000 -90.000000 0.000000 0.000000 10.000000 
root 0.000000 0.000000 0.000000 0.000000 0.000000 0.000000 10.000000 
chest 0.000000 0.000000 0.000000 0.000000 0.000000 0.000000 10.000000 
L_mid_tent01 0.000000 0.000000 0.000000 0.000000 0.000000 0.000000 10.000000 
R_mid_tent01 0.000000 0.000000 0.000000 0.000000 0.000000 0.000000 10.000000 
spine01 0.000000 0.000000 0.000000 0.000000 0.000000 0.000000 10.000000 
Bip01_Neck 0.000000 0.000000 0.000000 0.000000 0.000000 0.000000 10.000000 
L_humerus 0.000000 0.000000 0.000000 0.000000 0.000000 0.000000 10.000000 
R_humerus 0.000000 0.000000 0.000000 0.000000 0.000000 0.000000 10.000000 
weapon_bone 0.000000 0.000000 0.000000 0.000000 0.000000 0.000000 10.000000 
Bip01_Head 0.000000 0.000000 0.000000 0.000000 0.000000 0.000000 10.000000 
eye_left_bone 0.000000 0.000000 0.000000 0.000000 0.000000 0.000000 10.000000 
eye_right_bone 0.000000 0.000000 0.000000 0.000000 0.000000 0.000000 10.000000 
L_forearm 0.000000 0.000000 0.000000 0.000000 0.000000 0.000000 10.000000 
L_front_hand 0.000000 0.000000 0.000000 0.000000 0.000000 0.000000 10.000000 
L_weapon_bone 0.000000 0.000000 0.000000 0.000000 0.000000 0.000000 10.000000 
L_front_hand01_01 0.000000 0.000000 0.000000 0.000000 0.000000 0.000000 10.000000 
L_front_hand02_01 0.000000 0.000000 0.000000 0.000000 0.000000 0.000000 10.000000 
L_front_hand03_01 0.000000 0.000000 0.000000 0.000000 0.000000 0.000000 10.000000 
L_front_hand01_02 0.000000 0.000000 0.000000 0.000000 0.000000 0.000000 10.000000 
L_front_hand02_02 0.000000 0.000000 0.000000 0.000000 0.000000 0.000000 10.000000 
L_front_hand03_02 0.000000 0.000000 0.000000 0.000000 0.000000 0.000000 10.000000 
R_forearm 0.000000 0.000000 0.000000 0.000000 0.000000 0.000000 10.000000 
R_front_hand 0.000000 0.000000 0.000000 0.000000 0.000000 0.000000 10.000000 
R_weapon_bone 0.000000 0.000000 0.000000 0.000000 0.000000 0.000000 10.000000 
R_front_hand01_01 0.000000 0.000000 0.000000 0.000000 0.000000 0.000000 10.000000 
R_front_hand02_01 0.000000 0.000000 0.000000 0.000000 0.000000 0.000000 10.000000 
R_front_hand03_01 0.000000 0.000000 0.000000 0.000000 0.000000 0.000000 10.000000 
R_front_hand01_02 0.000000 0.000000 0.000000 0.000000 0.000000 0.000000 10.000000 
R_front_hand02_02 0.000000 0.000000 0.000000 0.000000 0.000000 0.000000 10.000000 
R_front_hand03_02 0.000000 0.000000 0.000000 0.000000 0.000000 0.000000 10.000000 
null_rope01_connect 0.000000 0.000000 0.000000 0.000000 0.000000 0.000000 10.000000 
Rope1_Seg01 0.000000 0.000000 0.000000 0.000000 0.000000 0.000000 10.000000 
Rope1_Seg02 0.000000 0.000000 0.000000 0.000000 0.000000 0.000000 10.000000 
Rope1_Seg03 0.000000 0.000000 0.000000 0.000000 0.000000 0.000000 10.000000 
Rope1_Seg04 0.000000 0.000000 0.000000 0.000000 0.000000 0.000000 10.000000 
Rope1_Seg05 0.000000 0.000000 0.000000 0.000000 0.000000 0.000000 10.000000 
Rope1_Seg06 0.000000 0.000000 0.000000 0.000000 0.000000 0.000000 10.000000 
Rope1_Seg07 0.000000 0.000000 0.000000 0.000000 0.000000 0.000000 10.000000 
Rope1_Seg09 0.000000 0.000000 0.000000 0.000000 0.000000 0.000000 10.000000 
L_mid_hand01 0.000000 0.000000 0.000000 0.000000 0.000000 0.000000 10.000000 
L_mid_hand02 0.000000 0.000000 0.000000 0.000000 0.000000 0.000000 10.000000 
L_mid_hand03 0.000000 0.000000 0.000000 0.000000 0.000000 0.000000 10.000000 
null_rope02_connect 0.000000 0.000000 0.000000 0.000000 0.000000 0.000000 10.000000 
Rope2_Seg01 0.000000 0.000000 0.000000 0.000000 0.000000 0.000000 10.000000 
Rope2_Seg02 0.000000 0.000000 0.000000 0.000000 0.000000 0.000000 10.000000 
Rope2_Seg03 0.000000 0.000000 0.000000 0.000000 0.000000 0.000000 10.000000 
Rope2_Seg04 0.000000 0.000000 0.000000 0.000000 0.000000 0.000000 10.000000 
Rope2_Seg05 0.000000 0.000000 0.000000 0.000000 0.000000 0.000000 10.000000 
Rope2_Seg06 0.000000 0.000000 0.000000 0.000000 0.000000 0.000000 10.000000 
Rope2_Seg07 0.000000 0.000000 0.000000 0.000000 0.000000 0.000000 10.000000 
Rope2_Seg09 0.000000 0.000000 0.000000 0.000000 0.000000 0.000000 10.000000 
R_mid_hand01 0.000000 0.000000 0.000000 0.000000 0.000000 0.000000 10.000000 
R_mid_hand02 0.000000 0.000000 0.000000 0.000000 0.000000 0.000000 10.000000 
R_mid_hand03 0.000000 0.000000 0.000000 0.000000 0.000000 0.000000 10.000000 
spine02 0.000000 0.000000 0.000000 0.000000 0.000000 0.000000 10.000000 
spine03 0.000000 0.000000 0.000000 0.000000 0.000000 0.000000 10.000000 
pelvis 0.000000 0.000000 0.000000 0.000000 0.000000 0.000000 10.000000 
null_rope03_connect 0.000000 0.000000 0.000000 0.000000 0.000000 0.000000 10.000000 
null_rope04_connect 0.000000 0.000000 0.000000 0.000000 0.000000 0.000000 10.000000 
Rope3_Seg01 0.000000 0.000000 0.000000 0.000000 0.000000 0.000000 10.000000 
Rope3_Seg02 0.000000 0.000000 0.000000 0.000000 0.000000 0.000000 10.000000 
Rope3_Seg03 0.000000 0.000000 0.000000 0.000000 0.000000 0.000000 10.000000 
Rope3_Seg04 0.000000 0.000000 0.000000 0.000000 0.000000 0.000000 10.000000 
Rope3_Seg05 0.000000 0.000000 0.000000 0.000000 0.000000 0.000000 10.000000 
Rope3_Seg06 0.000000 0.000000 0.000000 0.000000 0.000000 0.000000 10.000000 
Rope3_Seg07 0.000000 0.000000 0.000000 0.000000 0.000000 0.000000 10.000000 
Rope3_Seg08 0.000000 0.000000 0.000000 0.000000 0.000000 0.000000 10.000000 
Rope3_Seg09 0.000000 0.000000 0.000000 0.000000 0.000000 0.000000 10.000000 
R_rear_hand01 0.000000 0.000000 0.000000 0.000000 0.000000 0.000000 10.000000 
R_rear_hand02 0.000000 0.000000 0.000000 0.000000 0.000000 0.000000 10.000000 
R_rear_hand03 0.000000 0.000000 0.000000 0.000000 0.000000 0.000000 10.000000 
Rope4_Seg01 0.000000 0.000000 0.000000 0.000000 0.000000 0.000000 10.000000 
Rope4_Seg02 0.000000 0.000000 0.000000 0.000000 0.000000 0.000000 10.000000 
Rope4_Seg03 0.000000 0.000000 0.000000 0.000000 0.000000 0.000000 10.000000 
Rope4_Seg04 0.000000 0.000000 0.000000 0.000000 0.000000 0.000000 10.000000 
Rope4_Seg05 0.000000 0.000000 0.000000 0.000000 0.000000 0.000000 10.000000 
Rope4_Seg06 0.000000 0.000000 0.000000 0.000000 0.000000 0.000000 10.000000 
Rope4_Seg07 0.000000 0.000000 0.000000 0.000000 0.000000 0.000000 10.000000 
Rope4_Seg08 0.000000 0.000000 0.000000 0.000000 0.000000 0.000000 10.000000 
Rope4_Seg09 0.000000 0.000000 0.000000 0.000000 0.000000 0.000000 10.000000 
L_rear_hand01 0.000000 0.000000 0.000000 0.000000 0.000000 0.000000 10.000000 
L_rear_hand02 0.000000 0.000000 0.000000 0.000000 0.000000 0.000000 10.000000 
L_rear_hand03 0.000000 0.000000 0.000000 0.000000 0.000000 0.000000 10.000000 
#Beginning of Data. Separated by tabs
#Fr	Tx	Ty	Tz	Rx	Ry	Rz	SF
[MASTER]
23 0.000000 0.000000 0.000000 0.001660 0.001660 0.001660 0.000000
24 0.000000 0.000000 0.000000 0.001660 0.001660 0.001660 0.000000
[root]
23 -89.276314 -62.822132 1390.894531 -89.228790 -6.310912 -90.400307 1395.171875
24 -94.631447 -62.822132 1405.453979 -89.590561 -5.611748 -90.484962 1410.036377
[chest]
23 -84.512650 -34.090519 0.000000 -0.307809 -0.743092 156.385437 91.129311
24 -84.512650 -34.090519 0.000000 -0.307809 -0.743092 156.385437 91.129311
[L_mid_tent01]
23 23.228750 24.509907 -223.761200 -6.658278 19.221697 2.144283 226.294907
24 23.228750 24.509907 -223.761200 -7.015708 14.749712 4.232661 226.294907
[R_mid_tent01]
23 23.228794 24.509907 226.238495 -161.979462 -8.511907 3.270087 228.744751
24 23.228794 24.509907 226.238495 -161.288498 -6.596373 2.639546 228.744751
[spine01]
23 -0.361383 -0.195265 0.000000 0.001815 0.001488 11.320963 0.410763
24 -0.361383 -0.195265 0.000000 0.001815 0.001488 11.320960 0.410763
[Bip01_Neck]
23 165.484543 71.581718 0.000119 175.896118 1.177290 24.871183 180.302734
24 165.484543 71.581718 0.000119 175.896118 1.177290 24.871185 180.302734
[L_humerus]
23 -13.983130 -135.272980 -120.471481 149.628754 9.923236 -156.213867 181.680161
24 -13.983130 -135.272980 -120.471481 149.628754 9.923236 -156.213867 181.680161
[R_humerus]
23 -13.983309 -135.273102 125.287651 -156.699188 -11.743879 -154.898056 184.909012
24 -13.983309 -135.273102 125.287651 -156.699188 -11.743876 -154.898056 184.909012
[weapon_bone]
23 235.964890 -300.705902 0.000000 0.000000 -89.951546 -128.212341 382.234833
24 235.964890 -300.705902 0.000000 0.000000 -89.951546 -128.212341 382.234833
[Bip01_Head]
23 179.663712 77.988991 -1.800935 4.935104 2.486233 -41.288445 195.868774
24 179.663712 77.988983 -1.800935 4.965295 2.829120 -41.255222 195.868774
[eye_left_bone]
23 -24.626970 125.451866 -64.772606 0.000000 -90.000000 -99.840431 143.318359
24 -24.626970 125.451866 -64.772606 0.000000 -90.000000 -99.840431 143.318359
[eye_right_bone]
23 -24.626970 125.451866 64.327362 0.000000 -89.965736 80.156380 143.117676
24 -24.626970 125.451866 64.327362 0.000000 -89.980217 80.156387 143.117676
[L_forearm]
23 322.776093 0.000000 -0.000119 0.000842 -0.002191 -132.067245 322.776093
24 322.776093 0.000000 -0.000119 0.000842 -0.002191 -132.067245 322.776093
[L_front_hand]
23 241.149185 -0.042021 -3.300071 60.171871 -1.502728 -39.929760 241.171753
24 241.149185 -0.042021 -3.300071 60.106964 -1.507375 -39.930134 241.171753
[L_weapon_bone]
23 156.183838 0.000000 0.000000 0.000014 0.000007 0.000001 156.183838
24 156.183838 0.000000 0.000000 0.000014 0.000007 0.000001 156.183838
[L_front_hand01_01]
23 86.095154 20.947098 -0.655860 -0.247123 -0.547808 62.111301 88.609184
24 86.095154 20.947098 -0.655860 -0.366594 -0.477154 75.385567 88.609184
[L_front_hand02_01]
23 86.935165 -11.437475 24.513514 137.848663 -52.382851 -41.536789 91.046425
24 86.935165 -11.437475 24.513514 154.399796 -59.883827 -61.369579 91.046425
[L_front_hand03_01]
23 86.637497 -14.123976 -20.424902 -138.410004 50.637283 -43.729332 90.126129
24 86.637497 -14.123976 -20.424902 -153.913849 58.118130 -62.702866 90.126129
[L_front_hand01_02]
23 71.020905 -0.000179 0.000030 0.000125 -0.002344 -96.120285 71.020905
24 71.020905 -0.000179 0.000030 0.000090 0.002345 -85.606705 71.020905
[L_front_hand02_02]
23 71.020927 -0.000119 0.000060 0.000125 -0.002344 -96.120285 71.020927
24 71.020927 -0.000119 0.000060 0.000090 0.002345 -85.606705 71.020927
[L_front_hand03_02]
23 71.020905 -0.000060 0.000060 0.000125 -0.002344 -96.120285 71.020905
24 71.020905 -0.000060 0.000060 0.000090 0.002345 -85.606705 71.020905
[R_forearm]
23 322.776428 -0.000060 0.000030 0.244684 0.084396 -126.001297 322.776428
24 322.776428 -0.000060 0.000030 0.244684 0.084396 -126.001297 322.776428
[R_front_hand]
23 238.847015 -0.006795 2.210259 40.861717 0.238158 -48.451565 238.857239
24 238.847015 -0.006795 2.210259 40.642090 0.237086 -48.450424 238.857239
[R_weapon_bone]
23 155.664093 0.002503 -0.000030 0.003487 0.001180 -90.988930 155.664078
24 155.664093 0.002503 -0.000030 0.003487 0.001180 -90.988930 155.664078
[R_front_hand01_01]
23 87.624611 14.231146 22.918642 -121.141235 -28.953306 16.760672 91.683487
24 87.624611 14.231146 22.918642 -123.948540 -35.872829 21.983074 91.683487
[R_front_hand02_01]
23 89.356956 14.367283 -19.491137 122.441795 27.770464 19.405991 92.579636
24 89.356956 14.367283 -19.491137 125.206688 34.587734 24.739218 92.579636
[R_front_hand03_01]
23 87.286232 -22.307278 -0.143439 -0.174370 -0.420180 -32.566784 90.091743
24 87.286232 -22.307278 -0.143439 -0.109169 -0.439781 -40.769642 90.091743
[R_front_hand01_02]
23 71.020905 0.000060 0.000119 0.002335 -0.000241 101.809044 71.020905
24 71.020905 0.000060 0.000119 0.002343 -0.000138 96.732712 71.020905
[R_front_hand02_02]
23 71.020844 -0.000030 -0.000119 0.002335 -0.000241 101.809044 71.020836
24 71.020844 -0.000030 -0.000119 0.002343 -0.000138 96.732712 71.020836
[R_front_hand03_02]
23 71.020905 0.000000 0.000030 0.002335 -0.000241 101.809044 71.020905
24 71.020905 0.000000 0.000030 0.002343 -0.000138 96.732712 71.020905
[null_rope01_connect]
23 328.732483 0.000000 -0.000238 -103.146149 -69.584518 -163.957230 328.732483
24 328.732483 0.000000 -0.000238 -112.559631 -73.454231 -157.052704 328.732483
[Rope1_Seg01]
23 0.000000 0.000000 0.000000 79.561096 -28.694471 -149.822571 0.000000
24 0.000000 0.000000 0.000000 85.631813 -25.069305 -155.436554 0.000000
[Rope1_Seg02]
23 139.999863 -0.000179 0.000000 -8.548181 14.323359 6.037710 139.999863
24 139.999863 -0.000179 0.000000 -7.006228 11.817866 4.452984 139.999863
[Rope1_Seg03]
23 139.999924 0.000060 -0.000060 -15.299195 22.379354 14.580643 139.999924
24 139.999924 0.000060 -0.000060 -13.191748 18.649553 10.077172 139.999924
[Rope1_Seg04]
23 139.999924 -0.000060 -0.000119 -13.479392 21.444014 27.207809 139.999924
24 139.999924 -0.000060 -0.000119 -17.279137 24.193291 20.959948 139.999924
[Rope1_Seg05]
23 139.999832 0.000119 -0.000060 1.722084 -2.063113 -3.205662 139.999832
24 139.999832 0.000119 -0.000060 -5.388759 3.034922 13.830936 139.999832
[Rope1_Seg06]
23 139.999954 0.000119 -0.000060 4.552017 -4.095593 -8.166331 139.999954
24 139.999954 0.000119 -0.000060 0.661165 -2.940619 0.712044 139.999954
[Rope1_Seg07]
23 139.999985 0.000060 0.000000 0.822771 -0.879350 -1.295561 139.999985
24 139.999985 0.000060 0.000000 -0.211657 -0.455741 1.402198 139.999985
[Rope1_Seg09]
23 121.602913 0.000119 -0.000089 -89.793175 -1.359789 0.847147 121.602913
24 121.602913 0.000119 -0.000089 -89.793175 -1.359789 0.847147 121.602913
[L_mid_hand01]
23 103.859421 1.038730 8.195221 106.855484 -31.239275 -9.461397 104.187431
24 103.859421 1.038730 8.195221 106.855484 -31.239275 -9.461397 104.187431
[L_mid_hand02]
23 105.572853 -4.139662 -10.864139 -142.331345 25.752670 -28.774628 106.211075
24 105.572853 -4.139662 -10.864139 -142.331345 25.752670 -28.774628 106.211075
[L_mid_hand03]
23 104.641464 17.579376 -3.913581 -16.122810 9.734291 34.223598 106.179977
24 104.641464 17.579376 -3.913581 -16.122810 9.734291 34.223598 106.179977
[null_rope02_connect]
23 328.732849 0.000179 -0.000119 -154.195068 69.585190 -65.993423 328.732849
24 328.732849 0.000179 -0.000119 -159.854340 69.979431 -71.835495 328.732849
[Rope2_Seg01]
23 0.000139 0.000090 -0.000097 97.398903 -23.664646 -133.991348 0.000192
24 0.000138 0.000091 -0.000094 96.919098 -16.643246 -135.675919 0.000190
[Rope2_Seg02]
23 139.999741 -0.000060 -0.000119 -1.413089 17.252050 -9.437513 139.999756
24 139.999741 -0.000060 -0.000119 -1.299882 17.968348 -8.187128 139.999756
[Rope2_Seg03]
23 140.000107 0.000030 0.000000 0.711849 15.568152 -14.642392 140.000107
24 140.000107 0.000030 0.000000 0.691531 14.202647 -12.968578 140.000107
[Rope2_Seg04]
23 139.999802 0.000000 -0.000060 0.856552 11.202944 -7.164753 139.999802
24 139.999802 0.000000 -0.000060 -0.251783 11.436852 -5.657304 139.999802
[Rope2_Seg05]
23 139.999985 -0.000060 0.000119 -16.165281 10.398017 14.081874 139.999985
24 139.999985 -0.000060 0.000119 -18.456104 15.550599 13.544678 139.999985
[Rope2_Seg06]
23 139.999893 -0.000030 -0.000119 -12.288853 3.151825 13.609949 139.999893
24 139.999893 -0.000030 -0.000119 -15.478715 6.258560 13.679742 139.999893
[Rope2_Seg07]
23 139.999893 0.000060 -0.000060 -4.817847 1.083932 5.809843 139.999893
24 139.999893 0.000060 -0.000060 -6.324159 1.826042 6.081233 139.999893
[Rope2_Seg09]
23 121.338966 0.000089 -0.000060 33.793236 -1.359788 -0.847141 121.338966
24 121.338966 0.000089 -0.000060 33.793236 -1.359788 -0.847141 121.338966
[R_mid_hand01]
23 104.680779 11.144459 -10.335981 -41.523792 25.424656 28.595957 105.778534
24 104.680779 11.144459 -10.335981 -41.523792 25.424656 28.595957 105.778534
[R_mid_hand02]
23 104.070427 2.443552 8.231699 72.847389 -32.746803 10.013901 104.424065
24 104.070427 2.443552 8.231699 72.847389 -32.746803 10.013901 104.424065
[R_mid_hand03]
23 106.028137 -11.221827 -5.996406 -167.901306 10.259192 -37.009720 106.788818
24 106.028137 -11.221827 -5.996406 -167.901306 10.259192 -37.009720 106.788818
[spine02]
23 129.756927 0.001550 0.000119 0.001147 -1.797838 -7.854275 129.756927
24 129.756927 0.001550 0.000119 0.001147 -1.797837 -7.854275 129.756927
[spine03]
23 79.115631 0.000000 -0.000119 1.459971 -2.848092 23.765965 79.115631
24 79.115631 0.000000 -0.000119 1.459971 -2.848092 23.765963 79.115631
[pelvis]
23 169.435242 0.051022 0.000000 -0.000005 0.000003 -4.322055 169.435257
24 169.435242 0.051022 0.000000 -0.000005 0.000003 -4.322055 169.435257
[null_rope03_connect]
23 -1.257226 -2.466202 137.391083 50.319363 -85.163292 23.043524 137.418976
24 -1.257226 -2.466202 137.391083 52.036732 -85.479095 20.611259 137.418976
[null_rope04_connect]
23 -1.259640 -2.480268 -137.844437 50.319363 -85.163292 23.043524 137.872513
24 -1.259640 -2.480268 -137.844437 52.036732 -85.479095 20.611259 137.872513
[Rope3_Seg01]
23 0.000000 0.000000 0.000000 -132.292999 -7.673165 -59.704487 0.000000
24 0.000000 0.000000 0.000000 -131.238022 -5.624311 -70.504288 0.000000
[Rope3_Seg02]
23 139.999924 -0.000119 0.000060 0.290160 0.619540 2.125080 139.999924
24 139.999924 -0.000119 0.000060 0.212428 -1.027464 0.212412 139.999924
[Rope3_Seg03]
23 139.999924 -0.000119 0.000119 0.301153 0.771492 2.600447 139.999924
24 139.999924 -0.000119 0.000119 0.241402 -1.190818 0.251378 139.999924
[Rope3_Seg04]
23 139.999924 0.000119 0.000000 0.250394 0.919770 3.248564 139.999924
24 139.999924 0.000119 0.000000 0.248325 -1.759187 0.042340 139.999924
[Rope3_Seg05]
23 139.999924 -0.000238 0.000060 0.605663 -0.928027 3.627637 139.999924
24 139.999924 -0.000238 0.000060 0.889182 -4.872299 -1.892649 139.999924
[Rope3_Seg06]
23 139.999893 -0.000119 -0.000060 0.667291 2.720013 6.120222 139.999893
24 139.999893 -0.000119 -0.000060 0.639555 0.262154 2.070555 139.999893
[Rope3_Seg07]
23 139.999771 0.000060 -0.000119 1.535703 10.127611 8.586776 139.999771
24 139.999771 0.000060 -0.000119 0.852060 9.347074 8.499966 139.999771
[Rope3_Seg08]
23 139.999985 -0.000060 0.000000 1.853491 8.064291 6.398170 139.999985
24 139.999985 -0.000060 0.000000 1.189616 7.586030 6.900162 139.999985
[Rope3_Seg09]
23 90.185997 -0.000179 -0.000060 89.793228 -1.359877 -0.847183 90.185997
24 90.185997 -0.000179 -0.000060 89.793228 -1.359877 -0.847183 90.185997
[R_rear_hand01]
23 103.366196 -6.073594 -10.757982 -161.551193 16.666374 -30.088671 104.101845
24 103.366196 -6.073594 -10.757982 -161.551193 16.666374 -30.088671 104.101845
[R_rear_hand02]
23 100.509819 12.039542 -7.992327 -34.280552 19.289745 28.875523 101.543350
24 100.509819 12.039542 -7.992327 -34.280552 19.289745 28.875523 101.543350
[R_rear_hand03]
23 101.539970 5.215704 5.435467 83.366440 -30.933914 7.284830 101.819031
24 101.539970 5.215704 5.435467 83.366440 -30.933914 7.284830 101.819031
[Rope4_Seg01]
23 0.000000 0.000000 0.000000 34.159798 -9.929555 -59.717976 0.000000
24 0.000000 0.000000 0.000000 44.933918 -2.635795 -83.186852 0.000000
[Rope4_Seg02]
23 139.999985 0.000060 0.000119 6.531565 2.433589 -9.662095 139.999985
24 139.999985 0.000060 0.000119 0.740242 9.008495 3.578041 139.999985
[Rope4_Seg03]
23 139.999924 0.000000 -0.000238 3.465798 1.427125 -5.360697 139.999924
24 139.999924 0.000000 -0.000238 0.108809 5.626301 3.087353 139.999924
[Rope4_Seg04]
23 139.999985 0.000000 0.000119 1.974699 2.443171 -2.143146 139.999985
24 139.999985 0.000000 0.000119 -0.413393 4.372834 3.134070 139.999985
[Rope4_Seg05]
23 139.999802 -0.000060 -0.000119 1.585128 -1.062258 -3.213744 139.999802
24 139.999802 -0.000060 -0.000119 0.891827 0.010545 -1.140750 139.999802
[Rope4_Seg06]
23 139.999924 0.000000 0.000060 1.786540 -4.745263 -5.633987 139.999924
24 139.999924 0.000000 0.000060 2.306735 -3.417801 -5.042354 139.999924
[Rope4_Seg07]
23 139.999802 0.000000 0.000000 2.149137 -9.392755 -9.331855 139.999802
24 139.999802 0.000000 0.000000 3.468868 -7.983192 -10.142950 139.999802
[Rope4_Seg08]
23 139.999924 0.000000 0.000119 -0.701244 -6.398747 -6.679935 139.999924
24 139.999924 0.000000 0.000119 -0.039349 -5.551821 -6.818655 139.999924
[Rope4_Seg09]
23 90.185791 0.000060 0.000060 -135.617828 2.228885 0.850567 90.185791
24 90.185791 0.000060 0.000060 -135.617828 2.228885 0.850567 90.185791
[L_rear_hand01]
23 101.696655 -8.392275 -7.654577 -34.454281 -18.946800 151.655121 102.329041
24 101.696655 -8.392275 -7.654577 -34.454281 -18.946800 151.655121 102.329041
[L_rear_hand02]
23 102.726799 -1.568258 5.773216 83.407906 30.330435 172.796509 102.900848
24 102.726799 -1.568258 5.773216 83.407906 30.330435 172.796509 102.900848
[L_rear_hand03]
23 104.552910 9.721220 -10.420293 -161.379868 -16.473232 -150.512238 105.519653
24 104.552910 9.721220 -10.420293 -161.379868 -16.473232 -150.512238 105.519653
